<svg id="visual" viewBox="0 0 900 600" width="900" height="600" xmlns="http://www.w3.org/2000/svg" xmlns:xlink="http://www.w3.org/1999/xlink" version="1.1"><g stroke-width="1" stroke-linejoin="bevel"><path d="M425 313.7L463 326.7L438 278.3Z" fill="#bebfbf" stroke="#bebfbf"></path><path d="M463 326.7L483 263.3L438 278.3Z" fill="#8f9292" stroke="#8f9292"></path><path d="M472 328L483 263.3L463 326.7Z" fill="#e2e2e2" stroke="#e2e2e2"></path><path d="M472 328L502 314.9L483 263.3Z" fill="#cacaca" stroke="#cacaca"></path><path d="M508 259.1L483 245L483 263.3Z" fill="#e2e2e2" stroke="#e2e2e2"></path><path d="M483 263.3L483 245L438 278.3Z" fill="#a6a8a8" stroke="#a6a8a8"></path><path d="M463 326.7L488 360.7L472 328Z" fill="#6e7271" stroke="#6e7271"></path><path d="M472 328L511 350.9L502 314.9Z" fill="#a6a8a8" stroke="#a6a8a8"></path><path d="M418 371.7L488 360.7L463 326.7Z" fill="#b2b3b3" stroke="#b2b3b3"></path><path d="M502 314.9L508 259.1L483 263.3Z" fill="#bebfbf" stroke="#bebfbf"></path><path d="M425 313.7L418 371.7L463 326.7Z" fill="#9a9d9d" stroke="#9a9d9d"></path><path d="M414 196.4L390 254.3L438 278.3Z" fill="#e2e2e2" stroke="#e2e2e2"></path><path d="M438 278.3L372 287.3L425 313.7Z" fill="#797c7c" stroke="#797c7c"></path><path d="M425 313.7L377 358.6L418 371.7Z" fill="#e2e2e2" stroke="#e2e2e2"></path><path d="M488 360.7L511 350.9L472 328Z" fill="#b2b3b3" stroke="#b2b3b3"></path><path d="M502 314.9L535 311.9L508 259.1Z" fill="#9a9d9d" stroke="#9a9d9d"></path><path d="M390 254.3L372 287.3L438 278.3Z" fill="#9a9d9d" stroke="#9a9d9d"></path><path d="M507 236.4L476 225L483 245Z" fill="#9a9d9d" stroke="#9a9d9d"></path><path d="M483 245L476 225L438 278.3Z" fill="#9a9d9d" stroke="#9a9d9d"></path><path d="M511 350.9L535 311.9L502 314.9Z" fill="#a6a8a8" stroke="#a6a8a8"></path><path d="M523 235.1L507 236.4L508 259.1Z" fill="#8f9292" stroke="#8f9292"></path><path d="M508 259.1L507 236.4L483 245Z" fill="#cacaca" stroke="#cacaca"></path><path d="M372 287.3L377 358.6L425 313.7Z" fill="#8f9292" stroke="#8f9292"></path><path d="M546 234.4L523 235.1L508 259.1Z" fill="#797c7c" stroke="#797c7c"></path><path d="M507 147.4L473 158.6L476 225Z" fill="#9a9d9d" stroke="#9a9d9d"></path><path d="M339 298L349 324.1L372 287.3Z" fill="#d6d6d6" stroke="#d6d6d6"></path><path d="M372 287.3L349 324.1L377 358.6Z" fill="#9a9d9d" stroke="#9a9d9d"></path><path d="M441 456.6L458 409.9L418 371.7Z" fill="#bebfbf" stroke="#bebfbf"></path><path d="M418 371.7L458 409.9L488 360.7Z" fill="#a6a8a8" stroke="#a6a8a8"></path><path d="M488 360.7L510 398.4L511 350.9Z" fill="#8f9292" stroke="#8f9292"></path><path d="M322 266.9L339 298L372 287.3Z" fill="#b2b3b3" stroke="#b2b3b3"></path><path d="M473 158.6L414 196.4L476 225Z" fill="#9a9d9d" stroke="#9a9d9d"></path><path d="M476 225L414 196.4L438 278.3Z" fill="#e2e2e2" stroke="#e2e2e2"></path><path d="M390 254.3L322 266.9L372 287.3Z" fill="#d6d6d6" stroke="#d6d6d6"></path><path d="M458 409.9L510 398.4L488 360.7Z" fill="#8f9292" stroke="#8f9292"></path><path d="M511 350.9L565 326.7L535 311.9Z" fill="#a6a8a8" stroke="#a6a8a8"></path><path d="M573 359.7L565 326.7L511 350.9Z" fill="#8f9292" stroke="#8f9292"></path><path d="M535 311.9L546 234.4L508 259.1Z" fill="#bebfbf" stroke="#bebfbf"></path><path d="M571 312L546 234.4L535 311.9Z" fill="#848787" stroke="#848787"></path><path d="M507 147.4L476 225L507 236.4Z" fill="#b2b3b3" stroke="#b2b3b3"></path><path d="M414 196.4L373 210.4L390 254.3Z" fill="#e2e2e2" stroke="#e2e2e2"></path><path d="M565 326.7L571 312L535 311.9Z" fill="#8f9292" stroke="#8f9292"></path><path d="M414 196.4L376 195.1L373 210.4Z" fill="#b2b3b3" stroke="#b2b3b3"></path><path d="M373 210.4L322 266.9L390 254.3Z" fill="#848787" stroke="#848787"></path><path d="M307 250L322 266.9L373 210.4Z" fill="#848787" stroke="#848787"></path><path d="M339 298L304 298.9L349 324.1Z" fill="#b2b3b3" stroke="#b2b3b3"></path><path d="M510 398.4L573 359.7L511 350.9Z" fill="#b2b3b3" stroke="#b2b3b3"></path><path d="M565 326.7L585 317.9L571 312Z" fill="#b2b3b3" stroke="#b2b3b3"></path><path d="M586 321.1L585 317.9L565 326.7Z" fill="#a6a8a8" stroke="#a6a8a8"></path><path d="M571 312L608 283.3L546 234.4Z" fill="#848787" stroke="#848787"></path><path d="M573 359.7L586 321.1L565 326.7Z" fill="#b2b3b3" stroke="#b2b3b3"></path><path d="M322 266.9L308 288L339 298Z" fill="#bebfbf" stroke="#bebfbf"></path><path d="M320 400.4L340 408.4L377 358.6Z" fill="#cacaca" stroke="#cacaca"></path><path d="M308 288L304 298.9L339 298Z" fill="#9a9d9d" stroke="#9a9d9d"></path><path d="M507 147.4L507 236.4L523 235.1Z" fill="#a6a8a8" stroke="#a6a8a8"></path><path d="M414 196.4L356 156.7L376 195.1Z" fill="#797c7c" stroke="#797c7c"></path><path d="M634 345.7L602 307.9L586 321.1Z" fill="#d6d6d6" stroke="#d6d6d6"></path><path d="M586 321.1L602 307.9L585 317.9Z" fill="#a6a8a8" stroke="#a6a8a8"></path><path d="M585 317.9L602 307.9L571 312Z" fill="#e2e2e2" stroke="#e2e2e2"></path><path d="M338 182.1L307 250L373 210.4Z" fill="#b2b3b3" stroke="#b2b3b3"></path><path d="M322 266.9L307 250L308 288Z" fill="#9a9d9d" stroke="#9a9d9d"></path><path d="M308 288L241 282.1L304 298.9Z" fill="#cacaca" stroke="#cacaca"></path><path d="M320 400.4L377 358.6L349 324.1Z" fill="#848787" stroke="#848787"></path><path d="M377 358.6L340 408.4L418 371.7Z" fill="#b2b3b3" stroke="#b2b3b3"></path><path d="M340 408.4L441 456.6L418 371.7Z" fill="#bebfbf" stroke="#bebfbf"></path><path d="M489 459.3L523 441.4L510 398.4Z" fill="#e2e2e2" stroke="#e2e2e2"></path><path d="M510 398.4L564 453.6L573 359.7Z" fill="#bebfbf" stroke="#bebfbf"></path><path d="M489 459.3L510 398.4L458 409.9Z" fill="#bebfbf" stroke="#bebfbf"></path><path d="M602 307.9L608 283.3L571 312Z" fill="#e2e2e2" stroke="#e2e2e2"></path><path d="M555 172.6L507 147.4L523 235.1Z" fill="#d6d6d6" stroke="#d6d6d6"></path><path d="M441 456.6L489 459.3L458 409.9Z" fill="#d6d6d6" stroke="#d6d6d6"></path><path d="M268 332.9L320 400.4L349 324.1Z" fill="#d6d6d6" stroke="#d6d6d6"></path><path d="M458 502.6L489 459.3L441 456.6Z" fill="#e2e2e2" stroke="#e2e2e2"></path><path d="M473 158.6L444 139.7L414 196.4Z" fill="#bebfbf" stroke="#bebfbf"></path><path d="M376 195.1L338 182.1L373 210.4Z" fill="#9a9d9d" stroke="#9a9d9d"></path><path d="M356 156.7L338 182.1L376 195.1Z" fill="#6e7271" stroke="#6e7271"></path><path d="M555 172.6L523 235.1L546 234.4Z" fill="#b2b3b3" stroke="#b2b3b3"></path><path d="M473 158.6L452 133.6L444 139.7Z" fill="#a6a8a8" stroke="#a6a8a8"></path><path d="M590 194.4L555 172.6L546 234.4Z" fill="#6e7271" stroke="#6e7271"></path><path d="M505 116.4L452 133.6L473 158.6Z" fill="#bebfbf" stroke="#bebfbf"></path><path d="M444 139.7L356 156.7L414 196.4Z" fill="#cacaca" stroke="#cacaca"></path><path d="M489 459.3L531 454.4L523 441.4Z" fill="#8f9292" stroke="#8f9292"></path><path d="M523 441.4L564 453.6L510 398.4Z" fill="#a6a8a8" stroke="#a6a8a8"></path><path d="M573 359.7L634 345.7L586 321.1Z" fill="#848787" stroke="#848787"></path><path d="M327 118.4L356 156.7L356 68.9Z" fill="#cacaca" stroke="#cacaca"></path><path d="M615 222L590 194.4L546 234.4Z" fill="#6e7271" stroke="#6e7271"></path><path d="M608 283.3L615 222L546 234.4Z" fill="#e2e2e2" stroke="#e2e2e2"></path><path d="M241 282.1L268 332.9L304 298.9Z" fill="#797c7c" stroke="#797c7c"></path><path d="M304 298.9L268 332.9L349 324.1Z" fill="#848787" stroke="#848787"></path><path d="M249 256.3L308 288L307 250Z" fill="#d6d6d6" stroke="#d6d6d6"></path><path d="M296 198.3L307 250L338 182.1Z" fill="#848787" stroke="#848787"></path><path d="M296 198.3L290 209.4L307 250Z" fill="#bebfbf" stroke="#bebfbf"></path><path d="M284 186.6L296 198.3L338 182.1Z" fill="#b2b3b3" stroke="#b2b3b3"></path><path d="M642 358L634 345.7L573 359.7Z" fill="#b2b3b3" stroke="#b2b3b3"></path><path d="M602 307.9L654 324L608 283.3Z" fill="#848787" stroke="#848787"></path><path d="M648 234L633 215.1L615 222Z" fill="#a6a8a8" stroke="#a6a8a8"></path><path d="M587 478.4L564 453.6L539 524.1Z" fill="#e2e2e2" stroke="#e2e2e2"></path><path d="M531 454.4L564 453.6L523 441.4Z" fill="#8f9292" stroke="#8f9292"></path><path d="M458 502.6L492 488.3L489 459.3Z" fill="#9a9d9d" stroke="#9a9d9d"></path><path d="M489 459.3L492 488.3L531 454.4Z" fill="#a6a8a8" stroke="#a6a8a8"></path><path d="M458 502.6L441 456.6L421 502.3Z" fill="#cacaca" stroke="#cacaca"></path><path d="M519 118.9L505 116.4L507 147.4Z" fill="#a6a8a8" stroke="#a6a8a8"></path><path d="M507 147.4L505 116.4L473 158.6Z" fill="#e2e2e2" stroke="#e2e2e2"></path><path d="M356 68.9L356 156.7L444 139.7Z" fill="#d6d6d6" stroke="#d6d6d6"></path><path d="M519 118.9L507 147.4L555 172.6Z" fill="#848787" stroke="#848787"></path><path d="M597 154.6L519 118.9L555 172.6Z" fill="#a6a8a8" stroke="#a6a8a8"></path><path d="M564 453.6L607 424.7L573 359.7Z" fill="#8f9292" stroke="#8f9292"></path><path d="M607 424.7L642 358L573 359.7Z" fill="#9a9d9d" stroke="#9a9d9d"></path><path d="M648 234L615 222L608 283.3Z" fill="#e2e2e2" stroke="#e2e2e2"></path><path d="M421 502.3L441 456.6L375 491.1Z" fill="#797c7c" stroke="#797c7c"></path><path d="M282 412.9L297 432.4L320 400.4Z" fill="#8f9292" stroke="#8f9292"></path><path d="M320 400.4L297 432.4L340 408.4Z" fill="#b2b3b3" stroke="#b2b3b3"></path><path d="M258 363.7L282 412.9L320 400.4Z" fill="#bebfbf" stroke="#bebfbf"></path><path d="M268 332.9L258 363.7L320 400.4Z" fill="#8f9292" stroke="#8f9292"></path><path d="M238 332.1L258 363.7L268 332.9Z" fill="#6e7271" stroke="#6e7271"></path><path d="M375 491.1L441 456.6L340 408.4Z" fill="#797c7c" stroke="#797c7c"></path><path d="M296 198.3L284 186.6L290 209.4Z" fill="#9a9d9d" stroke="#9a9d9d"></path><path d="M290 209.4L249 256.3L307 250Z" fill="#b2b3b3" stroke="#b2b3b3"></path><path d="M327 118.4L284 186.6L338 182.1Z" fill="#bebfbf" stroke="#bebfbf"></path><path d="M341 491.4L375 491.1L340 408.4Z" fill="#9a9d9d" stroke="#9a9d9d"></path><path d="M615 222L633 215.1L590 194.4Z" fill="#6e7271" stroke="#6e7271"></path><path d="M590 194.4L597 154.6L555 172.6Z" fill="#848787" stroke="#848787"></path><path d="M654 324L602 307.9L634 345.7Z" fill="#e2e2e2" stroke="#e2e2e2"></path><path d="M642 358L654 324L634 345.7Z" fill="#bebfbf" stroke="#bebfbf"></path><path d="M246 177.3L249 256.3L290 209.4Z" fill="#a6a8a8" stroke="#a6a8a8"></path><path d="M645 151.4L597 154.6L590 194.4Z" fill="#9a9d9d" stroke="#9a9d9d"></path><path d="M660 235.3L648 234L608 283.3Z" fill="#797c7c" stroke="#797c7c"></path><path d="M633 215.1L645 151.4L590 194.4Z" fill="#d6d6d6" stroke="#d6d6d6"></path><path d="M249 256.3L241 282.1L308 288Z" fill="#8f9292" stroke="#8f9292"></path><path d="M241 282.1L238 332.1L268 332.9Z" fill="#6e7271" stroke="#6e7271"></path><path d="M258 363.7L238 395.6L282 412.9Z" fill="#797c7c" stroke="#797c7c"></path><path d="M523 86.6L507 93.6L519 118.9Z" fill="#b2b3b3" stroke="#b2b3b3"></path><path d="M519 118.9L507 93.6L505 116.4Z" fill="#e2e2e2" stroke="#e2e2e2"></path><path d="M505 116.4L507 93.6L452 133.6Z" fill="#e2e2e2" stroke="#e2e2e2"></path><path d="M356 156.7L327 118.4L338 182.1Z" fill="#9a9d9d" stroke="#9a9d9d"></path><path d="M345 500.6L341 491.4L330 506.6Z" fill="#9a9d9d" stroke="#9a9d9d"></path><path d="M297 432.4L341 491.4L340 408.4Z" fill="#b2b3b3" stroke="#b2b3b3"></path><path d="M375 491.1L369 545.3L421 502.3Z" fill="#b2b3b3" stroke="#b2b3b3"></path><path d="M458 502.6L478 519.1L492 488.3Z" fill="#a6a8a8" stroke="#a6a8a8"></path><path d="M539 524.1L564 453.6L531 454.4Z" fill="#797c7c" stroke="#797c7c"></path><path d="M564 453.6L598 473.6L607 424.7Z" fill="#cacaca" stroke="#cacaca"></path><path d="M475 556.1L478 519.1L453 558.1Z" fill="#cacaca" stroke="#cacaca"></path><path d="M478 519.1L458 502.6L453 558.1Z" fill="#d6d6d6" stroke="#d6d6d6"></path><path d="M654 324L660 235.3L608 283.3Z" fill="#e2e2e2" stroke="#e2e2e2"></path><path d="M648 234L660 209.3L633 215.1Z" fill="#9a9d9d" stroke="#9a9d9d"></path><path d="M440 73.7L444 139.7L452 133.6Z" fill="#9a9d9d" stroke="#9a9d9d"></path><path d="M539 524.1L531 454.4L492 488.3Z" fill="#848787" stroke="#848787"></path><path d="M607 424.7L645 443.7L642 358Z" fill="#b2b3b3" stroke="#b2b3b3"></path><path d="M330 506.6L341 491.4L306 500.6Z" fill="#e2e2e2" stroke="#e2e2e2"></path><path d="M341 491.4L345 500.6L375 491.1Z" fill="#6e7271" stroke="#6e7271"></path><path d="M587 478.4L598 473.6L564 453.6Z" fill="#a6a8a8" stroke="#a6a8a8"></path><path d="M582 73.9L523 86.6L519 118.9Z" fill="#6e7271" stroke="#6e7271"></path><path d="M507 93.6L440 73.7L452 133.6Z" fill="#8f9292" stroke="#8f9292"></path><path d="M345 500.6L353 510.3L375 491.1Z" fill="#e2e2e2" stroke="#e2e2e2"></path><path d="M466 11.7L440 73.7L507 93.6Z" fill="#797c7c" stroke="#797c7c"></path><path d="M660 235.3L660 209.3L648 234Z" fill="#8f9292" stroke="#8f9292"></path><path d="M597 154.6L582 73.9L519 118.9Z" fill="#d6d6d6" stroke="#d6d6d6"></path><path d="M238 332.1L238 395.6L258 363.7Z" fill="#6e7271" stroke="#6e7271"></path><path d="M282 412.9L270 457.7L297 432.4Z" fill="#a6a8a8" stroke="#a6a8a8"></path><path d="M345 500.6L330 506.6L353 510.3Z" fill="#8f9292" stroke="#8f9292"></path><path d="M241 282.1L215 323.7L238 332.1Z" fill="#d6d6d6" stroke="#d6d6d6"></path><path d="M238 332.1L215 323.7L238 395.6Z" fill="#848787" stroke="#848787"></path><path d="M200 265.1L215 323.7L241 282.1Z" fill="#e2e2e2" stroke="#e2e2e2"></path><path d="M200 265.1L241 282.1L249 256.3Z" fill="#b2b3b3" stroke="#b2b3b3"></path><path d="M306 500.6L341 491.4L297 432.4Z" fill="#bebfbf" stroke="#bebfbf"></path><path d="M245 426.7L270 457.7L282 412.9Z" fill="#9a9d9d" stroke="#9a9d9d"></path><path d="M475 556.1L539 524.1L478 519.1Z" fill="#848787" stroke="#848787"></path><path d="M478 519.1L539 524.1L492 488.3Z" fill="#6e7271" stroke="#6e7271"></path><path d="M587 478.4L618 512.4L598 473.6Z" fill="#9a9d9d" stroke="#9a9d9d"></path><path d="M327 118.4L246 177.3L284 186.6Z" fill="#b2b3b3" stroke="#b2b3b3"></path><path d="M284 186.6L246 177.3L290 209.4Z" fill="#a6a8a8" stroke="#a6a8a8"></path><path d="M222 455.4L245 426.7L174 422.6Z" fill="#d6d6d6" stroke="#d6d6d6"></path><path d="M238 395.6L245 426.7L282 412.9Z" fill="#9a9d9d" stroke="#9a9d9d"></path><path d="M598 473.6L645 443.7L607 424.7Z" fill="#6e7271" stroke="#6e7271"></path><path d="M642 358L692 334.7L654 324Z" fill="#9a9d9d" stroke="#9a9d9d"></path><path d="M684 424.6L645 443.7L693 446.3Z" fill="#cacaca" stroke="#cacaca"></path><path d="M356 68.9L319 97.6L327 118.4Z" fill="#8f9292" stroke="#8f9292"></path><path d="M327 118.4L223 131.4L246 177.3Z" fill="#9a9d9d" stroke="#9a9d9d"></path><path d="M709 349.9L692 334.7L642 358Z" fill="#b2b3b3" stroke="#b2b3b3"></path><path d="M654 324L692 334.7L660 235.3Z" fill="#797c7c" stroke="#797c7c"></path><path d="M660 235.3L677 211.1L660 209.3Z" fill="#797c7c" stroke="#797c7c"></path><path d="M270 457.7L306 500.6L297 432.4Z" fill="#6e7271" stroke="#6e7271"></path><path d="M719 230.3L677 211.1L660 235.3Z" fill="#b2b3b3" stroke="#b2b3b3"></path><path d="M660 209.3L645 151.4L633 215.1Z" fill="#e2e2e2" stroke="#e2e2e2"></path><path d="M677 211.1L645 151.4L660 209.3Z" fill="#797c7c" stroke="#797c7c"></path><path d="M423 36.9L412 56.7L440 73.7Z" fill="#b2b3b3" stroke="#b2b3b3"></path><path d="M440 73.7L412 56.7L444 139.7Z" fill="#b2b3b3" stroke="#b2b3b3"></path><path d="M412 56.7L356 68.9L444 139.7Z" fill="#797c7c" stroke="#797c7c"></path><path d="M204 240.4L200 265.1L249 256.3Z" fill="#cacaca" stroke="#cacaca"></path><path d="M246 177.3L204 240.4L249 256.3Z" fill="#e2e2e2" stroke="#e2e2e2"></path><path d="M453 558.1L421 502.3L369 545.3Z" fill="#cacaca" stroke="#cacaca"></path><path d="M453 558.1L458 502.6L421 502.3Z" fill="#cacaca" stroke="#cacaca"></path><path d="M375 491.1L353 510.3L369 545.3Z" fill="#bebfbf" stroke="#bebfbf"></path><path d="M369 545.3L353 510.3L324 548.1Z" fill="#8f9292" stroke="#8f9292"></path><path d="M324 548.1L353 510.3L330 506.6Z" fill="#6e7271" stroke="#6e7271"></path><path d="M436 585.3L458 561.1L453 558.1Z" fill="#d6d6d6" stroke="#d6d6d6"></path><path d="M453 558.1L458 561.1L475 556.1Z" fill="#b2b3b3" stroke="#b2b3b3"></path><path d="M684 424.6L709 349.9L642 358Z" fill="#6e7271" stroke="#6e7271"></path><path d="M728 244.3L719 230.3L660 235.3Z" fill="#a6a8a8" stroke="#a6a8a8"></path><path d="M660 487.3L645 443.7L598 473.6Z" fill="#848787" stroke="#848787"></path><path d="M645 443.7L684 424.6L642 358Z" fill="#a6a8a8" stroke="#a6a8a8"></path><path d="M640 92.7L582 73.9L597 154.6Z" fill="#d6d6d6" stroke="#d6d6d6"></path><path d="M466 11.7L423 36.9L440 73.7Z" fill="#797c7c" stroke="#797c7c"></path><path d="M466 11.7L507 93.6L523 86.6Z" fill="#6e7271" stroke="#6e7271"></path><path d="M412 56.7L383 0L356 68.9Z" fill="#e2e2e2" stroke="#e2e2e2"></path><path d="M620 525.3L618 512.4L539 524.1Z" fill="#cacaca" stroke="#cacaca"></path><path d="M539 524.1L618 512.4L587 478.4Z" fill="#797c7c" stroke="#797c7c"></path><path d="M188 219.1L193 216.3L161 189.3Z" fill="#6e7271" stroke="#6e7271"></path><path d="M246 177.3L193 216.3L204 240.4Z" fill="#bebfbf" stroke="#bebfbf"></path><path d="M204 240.4L167 269L200 265.1Z" fill="#cacaca" stroke="#cacaca"></path><path d="M174 422.6L245 426.7L238 395.6Z" fill="#b2b3b3" stroke="#b2b3b3"></path><path d="M245 426.7L222 455.4L270 457.7Z" fill="#797c7c" stroke="#797c7c"></path><path d="M270 457.7L253 504.4L306 500.6Z" fill="#a6a8a8" stroke="#a6a8a8"></path><path d="M306 500.6L324 548.1L330 506.6Z" fill="#6e7271" stroke="#6e7271"></path><path d="M166 337L238 395.6L215 323.7Z" fill="#b2b3b3" stroke="#b2b3b3"></path><path d="M167 269L215 323.7L200 265.1Z" fill="#a6a8a8" stroke="#a6a8a8"></path><path d="M191 146.7L193 216.3L246 177.3Z" fill="#9a9d9d" stroke="#9a9d9d"></path><path d="M193 216.3L188 219.1L204 240.4Z" fill="#e2e2e2" stroke="#e2e2e2"></path><path d="M577 19.9L565 52.6L582 73.9Z" fill="#797c7c" stroke="#797c7c"></path><path d="M582 73.9L565 52.6L523 86.6Z" fill="#797c7c" stroke="#797c7c"></path><path d="M253 504.4L324 548.1L306 500.6Z" fill="#e2e2e2" stroke="#e2e2e2"></path><path d="M369 545.3L436 585.3L453 558.1Z" fill="#9a9d9d" stroke="#9a9d9d"></path><path d="M222 455.4L240 484.3L270 457.7Z" fill="#bebfbf" stroke="#bebfbf"></path><path d="M728 244.3L660 235.3L692 334.7Z" fill="#cacaca" stroke="#cacaca"></path><path d="M677 211.1L712 173.4L645 151.4Z" fill="#8f9292" stroke="#8f9292"></path><path d="M645 151.4L640 92.7L597 154.6Z" fill="#9a9d9d" stroke="#9a9d9d"></path><path d="M618 512.4L660 487.3L598 473.6Z" fill="#e2e2e2" stroke="#e2e2e2"></path><path d="M592 577.1L620 525.3L539 524.1Z" fill="#e2e2e2" stroke="#e2e2e2"></path><path d="M618 512.4L661 520.1L660 487.3Z" fill="#e2e2e2" stroke="#e2e2e2"></path><path d="M592 577.1L539 524.1L561 600Z" fill="#cacaca" stroke="#cacaca"></path><path d="M240 484.3L253 504.4L270 457.7Z" fill="#cacaca" stroke="#cacaca"></path><path d="M660 487.3L693 446.3L645 443.7Z" fill="#8f9292" stroke="#8f9292"></path><path d="M684 424.6L722 405.6L709 349.9Z" fill="#cacaca" stroke="#cacaca"></path><path d="M719 230.3L714 201.4L677 211.1Z" fill="#8f9292" stroke="#8f9292"></path><path d="M426 600L436 585.3L393 604.1Z" fill="#848787" stroke="#848787"></path><path d="M458 561.1L451 600L475 556.1Z" fill="#6e7271" stroke="#6e7271"></path><path d="M692 124.7L640 92.7L645 151.4Z" fill="#e2e2e2" stroke="#e2e2e2"></path><path d="M767 320L728 244.3L692 334.7Z" fill="#848787" stroke="#848787"></path><path d="M757 213.1L742 178.1L714 201.4Z" fill="#d6d6d6" stroke="#d6d6d6"></path><path d="M767 320L692 334.7L709 349.9Z" fill="#6e7271" stroke="#6e7271"></path><path d="M319 97.6L223 131.4L327 118.4Z" fill="#6e7271" stroke="#6e7271"></path><path d="M243 84.6L223 131.4L319 97.6Z" fill="#8f9292" stroke="#8f9292"></path><path d="M202 139.6L223 131.4L198 127.7Z" fill="#bebfbf" stroke="#bebfbf"></path><path d="M140 287.9L167 269L113 233.1Z" fill="#8f9292" stroke="#8f9292"></path><path d="M188 219.1L167 269L204 240.4Z" fill="#bebfbf" stroke="#bebfbf"></path><path d="M693 446.3L712 417.4L684 424.6Z" fill="#bebfbf" stroke="#bebfbf"></path><path d="M167 269L166 337L215 323.7Z" fill="#6e7271" stroke="#6e7271"></path><path d="M737 412.6L722 405.6L712 417.4Z" fill="#8f9292" stroke="#8f9292"></path><path d="M712 417.4L722 405.6L684 424.6Z" fill="#b2b3b3" stroke="#b2b3b3"></path><path d="M489 0L466 11.7L523 86.6Z" fill="#e2e2e2" stroke="#e2e2e2"></path><path d="M253 52.9L319 97.6L335 0Z" fill="#bebfbf" stroke="#bebfbf"></path><path d="M742 178.1L712 173.4L714 201.4Z" fill="#bebfbf" stroke="#bebfbf"></path><path d="M714 201.4L712 173.4L677 211.1Z" fill="#8f9292" stroke="#8f9292"></path><path d="M243 84.6L319 97.6L253 52.9Z" fill="#bebfbf" stroke="#bebfbf"></path><path d="M223 131.4L202 139.6L246 177.3Z" fill="#9a9d9d" stroke="#9a9d9d"></path><path d="M426 600L451 600L436 585.3Z" fill="#cacaca" stroke="#cacaca"></path><path d="M436 585.3L451 600L458 561.1Z" fill="#d6d6d6" stroke="#d6d6d6"></path><path d="M386 600L436 585.3L369 545.3Z" fill="#8f9292" stroke="#8f9292"></path><path d="M111 311.9L153 348L166 337Z" fill="#e2e2e2" stroke="#e2e2e2"></path><path d="M166 337L174 422.6L238 395.6Z" fill="#8f9292" stroke="#8f9292"></path><path d="M183 492.3L223 514.3L240 484.3Z" fill="#a6a8a8" stroke="#a6a8a8"></path><path d="M704 142.3L692 124.7L645 151.4Z" fill="#8f9292" stroke="#8f9292"></path><path d="M712 173.4L704 142.3L645 151.4Z" fill="#d6d6d6" stroke="#d6d6d6"></path><path d="M383 0L412 56.7L423 36.9Z" fill="#cacaca" stroke="#cacaca"></path><path d="M153 348L174 422.6L166 337Z" fill="#848787" stroke="#848787"></path><path d="M240 484.3L223 514.3L253 504.4Z" fill="#848787" stroke="#848787"></path><path d="M191 146.7L193 145.7L198 127.7Z" fill="#848787" stroke="#848787"></path><path d="M202 139.6L193 145.7L246 177.3Z" fill="#797c7c" stroke="#797c7c"></path><path d="M198 127.7L193 145.7L202 139.6Z" fill="#797c7c" stroke="#797c7c"></path><path d="M193 145.7L191 146.7L246 177.3Z" fill="#848787" stroke="#848787"></path><path d="M489 0L441 0L466 11.7Z" fill="#797c7c" stroke="#797c7c"></path><path d="M466 11.7L441 0L423 36.9Z" fill="#a6a8a8" stroke="#a6a8a8"></path><path d="M620 525.3L661 520.1L618 512.4Z" fill="#797c7c" stroke="#797c7c"></path><path d="M660 487.3L712 515.3L693 446.3Z" fill="#b2b3b3" stroke="#b2b3b3"></path><path d="M693 446.3L737 412.6L712 417.4Z" fill="#cacaca" stroke="#cacaca"></path><path d="M623 600L661 520.1L620 525.3Z" fill="#6e7271" stroke="#6e7271"></path><path d="M373 600L369 545.3L324 548.1Z" fill="#bebfbf" stroke="#bebfbf"></path><path d="M373 600L386 600L369 545.3Z" fill="#848787" stroke="#848787"></path><path d="M536 0L523 86.6L565 52.6Z" fill="#bebfbf" stroke="#bebfbf"></path><path d="M536 0L489 0L523 86.6Z" fill="#cacaca" stroke="#cacaca"></path><path d="M386 600L393 604.1L436 585.3Z" fill="#797c7c" stroke="#797c7c"></path><path d="M426 600L393 604.1L451 600Z" fill="#797c7c" stroke="#797c7c"></path><path d="M243 84.6L198 127.7L223 131.4Z" fill="#bebfbf" stroke="#bebfbf"></path><path d="M319 600L373 600L324 548.1Z" fill="#b2b3b3" stroke="#b2b3b3"></path><path d="M386 600L373 600L393 604.1Z" fill="#9a9d9d" stroke="#9a9d9d"></path><path d="M791 484.4L737 412.6L693 446.3Z" fill="#bebfbf" stroke="#bebfbf"></path><path d="M722 405.6L773 350.9L709 349.9Z" fill="#e2e2e2" stroke="#e2e2e2"></path><path d="M561 600L539 524.1L475 556.1Z" fill="#a6a8a8" stroke="#a6a8a8"></path><path d="M441 0L383 0L423 36.9Z" fill="#e2e2e2" stroke="#e2e2e2"></path><path d="M614 0L577 19.9L582 73.9Z" fill="#cacaca" stroke="#cacaca"></path><path d="M614 0L582 73.9L640 92.7Z" fill="#cacaca" stroke="#cacaca"></path><path d="M183 492.3L240 484.3L222 455.4Z" fill="#9a9d9d" stroke="#9a9d9d"></path><path d="M255 600L319 600L324 548.1Z" fill="#797c7c" stroke="#797c7c"></path><path d="M113 233.1L167 269L188 219.1Z" fill="#9a9d9d" stroke="#9a9d9d"></path><path d="M167 269L140 287.9L166 337Z" fill="#797c7c" stroke="#797c7c"></path><path d="M166 95.4L161 189.3L191 146.7Z" fill="#848787" stroke="#848787"></path><path d="M191 146.7L161 189.3L193 216.3Z" fill="#d6d6d6" stroke="#d6d6d6"></path><path d="M561 7.7L536 0L565 52.6Z" fill="#8f9292" stroke="#8f9292"></path><path d="M577 19.9L561 7.7L565 52.6Z" fill="#b2b3b3" stroke="#b2b3b3"></path><path d="M704 142.3L702 112.9L692 124.7Z" fill="#b2b3b3" stroke="#b2b3b3"></path><path d="M692 124.7L702 112.9L640 92.7Z" fill="#8f9292" stroke="#8f9292"></path><path d="M565 -10.1L558 0L561 7.7Z" fill="#e2e2e2" stroke="#e2e2e2"></path><path d="M746 136.6L702 112.9L704 142.3Z" fill="#9a9d9d" stroke="#9a9d9d"></path><path d="M746 136.6L704 142.3L712 173.4Z" fill="#9a9d9d" stroke="#9a9d9d"></path><path d="M113 409.9L168 445.7L174 422.6Z" fill="#bebfbf" stroke="#bebfbf"></path><path d="M174 422.6L168 445.7L222 455.4Z" fill="#848787" stroke="#848787"></path><path d="M113 409.9L174 422.6L153 348Z" fill="#8f9292" stroke="#8f9292"></path><path d="M393 604.1L561 600L451 600Z" fill="#cacaca" stroke="#cacaca"></path><path d="M451 600L561 600L475 556.1Z" fill="#b2b3b3" stroke="#b2b3b3"></path><path d="M773 350.9L767 320L709 349.9Z" fill="#8f9292" stroke="#8f9292"></path><path d="M757 213.1L714 201.4L719 230.3Z" fill="#a6a8a8" stroke="#a6a8a8"></path><path d="M757 213.1L719 230.3L728 244.3Z" fill="#6e7271" stroke="#6e7271"></path><path d="M166 633.1L562 600L561 600Z" fill="#a6a8a8" stroke="#a6a8a8"></path><path d="M561 600L562 600L592 577.1Z" fill="#bebfbf" stroke="#bebfbf"></path><path d="M335 0L319 97.6L356 68.9Z" fill="#bebfbf" stroke="#bebfbf"></path><path d="M243 84.6L221 66.9L198 127.7Z" fill="#d6d6d6" stroke="#d6d6d6"></path><path d="M805 293.9L757 213.1L728 244.3Z" fill="#8f9292" stroke="#8f9292"></path><path d="M565 -10.1L561 7.7L577 19.9Z" fill="#848787" stroke="#848787"></path><path d="M561 7.7L558 0L536 0Z" fill="#cacaca" stroke="#cacaca"></path><path d="M383 0L336 0L356 68.9Z" fill="#bebfbf" stroke="#bebfbf"></path><path d="M336 0L335 0L356 68.9Z" fill="#cacaca" stroke="#cacaca"></path><path d="M373 600L319 600L393 604.1Z" fill="#797c7c" stroke="#797c7c"></path><path d="M255 600L324 548.1L253 504.4Z" fill="#6e7271" stroke="#6e7271"></path><path d="M737 412.6L773 350.9L722 405.6Z" fill="#9a9d9d" stroke="#9a9d9d"></path><path d="M767 320L805 293.9L728 244.3Z" fill="#e2e2e2" stroke="#e2e2e2"></path><path d="M168 445.7L183 492.3L222 455.4Z" fill="#e2e2e2" stroke="#e2e2e2"></path><path d="M223 514.3L255 600L253 504.4Z" fill="#797c7c" stroke="#797c7c"></path><path d="M219 57.6L221 66.9L253 52.9Z" fill="#b2b3b3" stroke="#b2b3b3"></path><path d="M253 52.9L221 66.9L243 84.6Z" fill="#cacaca" stroke="#cacaca"></path><path d="M66 186.4L113 233.1L161 189.3Z" fill="#797c7c" stroke="#797c7c"></path><path d="M614 0L565 -10.1L577 19.9Z" fill="#d6d6d6" stroke="#d6d6d6"></path><path d="M558 0L565 -10.1L536 0Z" fill="#d6d6d6" stroke="#d6d6d6"></path><path d="M536 0L565 -10.1L489 0Z" fill="#9a9d9d" stroke="#9a9d9d"></path><path d="M489 0L394 -29.1L441 0Z" fill="#848787" stroke="#848787"></path><path d="M441 0L394 -29.1L383 0Z" fill="#6e7271" stroke="#6e7271"></path><path d="M383 0L394 -29.1L336 0Z" fill="#bebfbf" stroke="#bebfbf"></path><path d="M336 0L394 -29.1L335 0Z" fill="#a6a8a8" stroke="#a6a8a8"></path><path d="M565 -10.1L394 -29.1L489 0Z" fill="#cacaca" stroke="#cacaca"></path><path d="M254 20.7L219 57.6L253 52.9Z" fill="#9a9d9d" stroke="#9a9d9d"></path><path d="M221 66.9L166 95.4L198 127.7Z" fill="#e2e2e2" stroke="#e2e2e2"></path><path d="M710 525.3L661 520.1L704 538.1Z" fill="#b2b3b3" stroke="#b2b3b3"></path><path d="M710 525.3L712 515.3L661 520.1Z" fill="#797c7c" stroke="#797c7c"></path><path d="M661 520.1L712 515.3L660 487.3Z" fill="#d6d6d6" stroke="#d6d6d6"></path><path d="M794 394.4L801 348L773 350.9Z" fill="#d6d6d6" stroke="#d6d6d6"></path><path d="M734 44.9L681 56.9L702 112.9Z" fill="#cacaca" stroke="#cacaca"></path><path d="M702 112.9L681 56.9L640 92.7Z" fill="#cacaca" stroke="#cacaca"></path><path d="M105 278.1L111 311.9L140 287.9Z" fill="#e2e2e2" stroke="#e2e2e2"></path><path d="M140 287.9L111 311.9L166 337Z" fill="#d6d6d6" stroke="#d6d6d6"></path><path d="M168 445.7L154 480.1L183 492.3Z" fill="#6e7271" stroke="#6e7271"></path><path d="M791 122.6L746 136.6L803 136.4Z" fill="#6e7271" stroke="#6e7271"></path><path d="M742 178.1L746 136.6L712 173.4Z" fill="#cacaca" stroke="#cacaca"></path><path d="M623 600L620 525.3L592 577.1Z" fill="#797c7c" stroke="#797c7c"></path><path d="M794 394.4L773 350.9L737 412.6Z" fill="#848787" stroke="#848787"></path><path d="M290 -10.1L254 20.7L253 52.9Z" fill="#797c7c" stroke="#797c7c"></path><path d="M290 -10.1L253 52.9L335 0Z" fill="#9a9d9d" stroke="#9a9d9d"></path><path d="M562 600L623 600L592 577.1Z" fill="#d6d6d6" stroke="#d6d6d6"></path><path d="M166 633.1L623 600L562 600Z" fill="#d6d6d6" stroke="#d6d6d6"></path><path d="M166 95.4L191 146.7L198 127.7Z" fill="#e2e2e2" stroke="#e2e2e2"></path><path d="M161 189.3L113 233.1L188 219.1Z" fill="#797c7c" stroke="#797c7c"></path><path d="M660 10.7L614 0L640 92.7Z" fill="#a6a8a8" stroke="#a6a8a8"></path><path d="M108 441.7L154 480.1L168 445.7Z" fill="#b2b3b3" stroke="#b2b3b3"></path><path d="M240 600L255 600L223 514.3Z" fill="#e2e2e2" stroke="#e2e2e2"></path><path d="M102 263.1L105 278.1L140 287.9Z" fill="#bebfbf" stroke="#bebfbf"></path><path d="M689 600L704 538.1L661 520.1Z" fill="#b2b3b3" stroke="#b2b3b3"></path><path d="M82 505.3L155 484.6L154 480.1Z" fill="#d6d6d6" stroke="#d6d6d6"></path><path d="M154 480.1L155 484.6L183 492.3Z" fill="#d6d6d6" stroke="#d6d6d6"></path><path d="M113 233.1L102 263.1L140 287.9Z" fill="#6e7271" stroke="#6e7271"></path><path d="M108 441.7L56 396.4L90 463.3Z" fill="#9a9d9d" stroke="#9a9d9d"></path><path d="M394 -29.1L290 -10.1L335 0Z" fill="#848787" stroke="#848787"></path><path d="M199 21.9L219 57.6L254 20.7Z" fill="#848787" stroke="#848787"></path><path d="M163 29.7L166 95.4L219 57.6Z" fill="#b2b3b3" stroke="#b2b3b3"></path><path d="M219 57.6L166 95.4L221 66.9Z" fill="#e2e2e2" stroke="#e2e2e2"></path><path d="M111 311.9L113 409.9L153 348Z" fill="#797c7c" stroke="#797c7c"></path><path d="M113 409.9L111 311.9L58 330.9Z" fill="#6e7271" stroke="#6e7271"></path><path d="M794 394.4L737 412.6L791 484.4Z" fill="#797c7c" stroke="#797c7c"></path><path d="M773 350.9L801 348L767 320Z" fill="#797c7c" stroke="#797c7c"></path><path d="M757 213.1L818 194.1L742 178.1Z" fill="#b2b3b3" stroke="#b2b3b3"></path><path d="M693 446.3L712 515.3L791 484.4Z" fill="#9a9d9d" stroke="#9a9d9d"></path><path d="M801 348L805 293.9L767 320Z" fill="#d6d6d6" stroke="#d6d6d6"></path><path d="M240 600L223 514.3L227 600Z" fill="#cacaca" stroke="#cacaca"></path><path d="M319 600L166 633.1L393 604.1Z" fill="#cacaca" stroke="#cacaca"></path><path d="M742 554.1L712 515.3L710 525.3Z" fill="#b2b3b3" stroke="#b2b3b3"></path><path d="M717 0L660 10.7L681 56.9Z" fill="#6e7271" stroke="#6e7271"></path><path d="M681 56.9L660 10.7L640 92.7Z" fill="#e2e2e2" stroke="#e2e2e2"></path><path d="M290 -10.1L253 0L254 20.7Z" fill="#b2b3b3" stroke="#b2b3b3"></path><path d="M227 600L154 600L211 611.1Z" fill="#797c7c" stroke="#797c7c"></path><path d="M255 600L211 611.1L319 600Z" fill="#bebfbf" stroke="#bebfbf"></path><path d="M717 0L656 0L660 10.7Z" fill="#797c7c" stroke="#797c7c"></path><path d="M660 10.7L656 0L614 0Z" fill="#8f9292" stroke="#8f9292"></path><path d="M614 0L656 0L565 -10.1Z" fill="#b2b3b3" stroke="#b2b3b3"></path><path d="M113 409.9L108 441.7L168 445.7Z" fill="#b2b3b3" stroke="#b2b3b3"></path><path d="M227 600L223 514.3L154 600Z" fill="#bebfbf" stroke="#bebfbf"></path><path d="M47 307L111 311.9L105 278.1Z" fill="#848787" stroke="#848787"></path><path d="M223 514.3L183 492.3L154 600Z" fill="#848787" stroke="#848787"></path><path d="M240 600L211 611.1L255 600Z" fill="#6e7271" stroke="#6e7271"></path><path d="M204 0L199 21.9L254 20.7Z" fill="#6e7271" stroke="#6e7271"></path><path d="M163 29.7L138 86.9L166 95.4Z" fill="#a6a8a8" stroke="#a6a8a8"></path><path d="M166 95.4L138 86.9L161 189.3Z" fill="#797c7c" stroke="#797c7c"></path><path d="M113 233.1L70 268L102 263.1Z" fill="#797c7c" stroke="#797c7c"></path><path d="M623 600L689 600L661 520.1Z" fill="#797c7c" stroke="#797c7c"></path><path d="M704 538.1L742 554.1L710 525.3Z" fill="#6e7271" stroke="#6e7271"></path><path d="M166 633.1L689 600L623 600Z" fill="#e2e2e2" stroke="#e2e2e2"></path><path d="M39 219.3L70 268L113 233.1Z" fill="#bebfbf" stroke="#bebfbf"></path><path d="M102 263.1L70 268L105 278.1Z" fill="#e2e2e2" stroke="#e2e2e2"></path><path d="M767 70.7L734 44.9L702 112.9Z" fill="#d6d6d6" stroke="#d6d6d6"></path><path d="M767 70.7L702 112.9L746 136.6Z" fill="#cacaca" stroke="#cacaca"></path><path d="M830 194.6L818 194.1L863 272.1Z" fill="#6e7271" stroke="#6e7271"></path><path d="M805 293.9L818 194.1L757 213.1Z" fill="#9a9d9d" stroke="#9a9d9d"></path><path d="M689 600L742 554.1L704 538.1Z" fill="#a6a8a8" stroke="#a6a8a8"></path><path d="M803 136.4L746 136.6L742 178.1Z" fill="#9a9d9d" stroke="#9a9d9d"></path><path d="M742 554.1L791 484.4L712 515.3Z" fill="#a6a8a8" stroke="#a6a8a8"></path><path d="M843 354L839 338.9L801 348Z" fill="#8f9292" stroke="#8f9292"></path><path d="M801 348L839 338.9L805 293.9Z" fill="#d6d6d6" stroke="#d6d6d6"></path><path d="M253 0L204 0L254 20.7Z" fill="#cacaca" stroke="#cacaca"></path><path d="M199 21.9L163 29.7L219 57.6Z" fill="#d6d6d6" stroke="#d6d6d6"></path><path d="M290 -10.1L204 0L253 0Z" fill="#9a9d9d" stroke="#9a9d9d"></path><path d="M143 0L204 0L290 -10.1Z" fill="#e2e2e2" stroke="#e2e2e2"></path><path d="M154 600L183 492.3L107 547.1Z" fill="#a6a8a8" stroke="#a6a8a8"></path><path d="M227 600L211 611.1L240 600Z" fill="#8f9292" stroke="#8f9292"></path><path d="M393 604.1L166 633.1L561 600Z" fill="#e2e2e2" stroke="#e2e2e2"></path><path d="M818 194.1L803 136.4L742 178.1Z" fill="#bebfbf" stroke="#bebfbf"></path><path d="M791 122.6L767 70.7L746 136.6Z" fill="#d6d6d6" stroke="#d6d6d6"></path><path d="M843 354L801 348L794 394.4Z" fill="#b2b3b3" stroke="#b2b3b3"></path><path d="M806 82.9L767 70.7L791 122.6Z" fill="#d6d6d6" stroke="#d6d6d6"></path><path d="M47 307L58 330.9L111 311.9Z" fill="#a6a8a8" stroke="#a6a8a8"></path><path d="M56 396.4L108 441.7L113 409.9Z" fill="#6e7271" stroke="#6e7271"></path><path d="M108 441.7L90 463.3L154 480.1Z" fill="#797c7c" stroke="#797c7c"></path><path d="M863 272.1L818 194.1L805 293.9Z" fill="#9a9d9d" stroke="#9a9d9d"></path><path d="M818 194.1L830 194.6L803 136.4Z" fill="#9a9d9d" stroke="#9a9d9d"></path><path d="M204 0L163 29.7L199 21.9Z" fill="#a6a8a8" stroke="#a6a8a8"></path><path d="M868 370.7L843 354L794 394.4Z" fill="#cacaca" stroke="#cacaca"></path><path d="M839 338.9L863 272.1L805 293.9Z" fill="#bebfbf" stroke="#bebfbf"></path><path d="M843 354L844 346.7L839 338.9Z" fill="#bebfbf" stroke="#bebfbf"></path><path d="M67 152.6L161 189.3L138 86.9Z" fill="#6e7271" stroke="#6e7271"></path><path d="M67 152.6L66 186.4L161 189.3Z" fill="#d6d6d6" stroke="#d6d6d6"></path><path d="M70 268L47 307L105 278.1Z" fill="#d6d6d6" stroke="#d6d6d6"></path><path d="M0 293.9L47 307L0 262.1Z" fill="#8f9292" stroke="#8f9292"></path><path d="M58 330.9L56 396.4L113 409.9Z" fill="#e2e2e2" stroke="#e2e2e2"></path><path d="M767 70.7L756 39.7L734 44.9Z" fill="#8f9292" stroke="#8f9292"></path><path d="M734 44.9L717 0L681 56.9Z" fill="#9a9d9d" stroke="#9a9d9d"></path><path d="M822 74.6L756 39.7L767 70.7Z" fill="#848787" stroke="#848787"></path><path d="M756 39.7L717 0L734 44.9Z" fill="#8f9292" stroke="#8f9292"></path><path d="M656 0L717 0L565 -10.1Z" fill="#848787" stroke="#848787"></path><path d="M565 -10.1L824 0L394 -29.1Z" fill="#bebfbf" stroke="#bebfbf"></path><path d="M45 397.7L56 396.4L58 330.9Z" fill="#848787" stroke="#848787"></path><path d="M831 456.6L834 441.3L791 484.4Z" fill="#9a9d9d" stroke="#9a9d9d"></path><path d="M791 484.4L834 441.3L794 394.4Z" fill="#8f9292" stroke="#8f9292"></path><path d="M900 281.1L839 338.9L900 349.6Z" fill="#e2e2e2" stroke="#e2e2e2"></path><path d="M816 516.1L831 456.6L791 484.4Z" fill="#797c7c" stroke="#797c7c"></path><path d="M57 69.6L67 152.6L138 86.9Z" fill="#b2b3b3" stroke="#b2b3b3"></path><path d="M66 186.4L39 219.3L113 233.1Z" fill="#6e7271" stroke="#6e7271"></path><path d="M900 281.1L863 272.1L839 338.9Z" fill="#9a9d9d" stroke="#9a9d9d"></path><path d="M868 370.7L844 346.7L843 354Z" fill="#9a9d9d" stroke="#9a9d9d"></path><path d="M0 293.9L45 397.7L58 330.9Z" fill="#8f9292" stroke="#8f9292"></path><path d="M56 396.4L45 397.7L90 463.3Z" fill="#8f9292" stroke="#8f9292"></path><path d="M822 74.6L806 82.9L803 136.4Z" fill="#8f9292" stroke="#8f9292"></path><path d="M803 136.4L806 82.9L791 122.6Z" fill="#e2e2e2" stroke="#e2e2e2"></path><path d="M756 39.7L783 0L717 0Z" fill="#a6a8a8" stroke="#a6a8a8"></path><path d="M862 171.4L803 136.4L830 194.6Z" fill="#797c7c" stroke="#797c7c"></path><path d="M40 190.6L39 219.3L66 186.4Z" fill="#797c7c" stroke="#797c7c"></path><path d="M47 307L0 293.9L58 330.9Z" fill="#9a9d9d" stroke="#9a9d9d"></path><path d="M107 547.1L183 492.3L155 484.6Z" fill="#9a9d9d" stroke="#9a9d9d"></path><path d="M82 505.3L154 480.1L90 463.3Z" fill="#e2e2e2" stroke="#e2e2e2"></path><path d="M62 496.6L82 505.3L90 463.3Z" fill="#d6d6d6" stroke="#d6d6d6"></path><path d="M82 505.3L107 547.1L155 484.6Z" fill="#e2e2e2" stroke="#e2e2e2"></path><path d="M866 428.6L794 394.4L834 441.3Z" fill="#cacaca" stroke="#cacaca"></path><path d="M866 428.6L868 370.7L794 394.4Z" fill="#bebfbf" stroke="#bebfbf"></path><path d="M742 554.1L816 516.1L791 484.4Z" fill="#b2b3b3" stroke="#b2b3b3"></path><path d="M882 460.3L866 428.6L834 441.3Z" fill="#e2e2e2" stroke="#e2e2e2"></path><path d="M818 521.4L816 516.1L742 554.1Z" fill="#e2e2e2" stroke="#e2e2e2"></path><path d="M67 152.6L40 190.6L66 186.4Z" fill="#848787" stroke="#848787"></path><path d="M166 633.1L755 600L689 600Z" fill="#9a9d9d" stroke="#9a9d9d"></path><path d="M689 600L755 600L742 554.1Z" fill="#848787" stroke="#848787"></path><path d="M777 600L818 521.4L742 554.1Z" fill="#6e7271" stroke="#6e7271"></path><path d="M889 516.4L882 460.3L831 456.6Z" fill="#a6a8a8" stroke="#a6a8a8"></path><path d="M900 245L869 213.3L863 272.1Z" fill="#a6a8a8" stroke="#a6a8a8"></path><path d="M863 272.1L869 213.3L830 194.6Z" fill="#b2b3b3" stroke="#b2b3b3"></path><path d="M154 600L160 620.1L211 611.1Z" fill="#e2e2e2" stroke="#e2e2e2"></path><path d="M211 611.1L166 633.1L319 600Z" fill="#6e7271" stroke="#6e7271"></path><path d="M109 600L160 620.1L154 600Z" fill="#cacaca" stroke="#cacaca"></path><path d="M166 633.1L762 600L755 600Z" fill="#cacaca" stroke="#cacaca"></path><path d="M755 600L762 600L742 554.1Z" fill="#848787" stroke="#848787"></path><path d="M204 0L143 0L163 29.7Z" fill="#797c7c" stroke="#797c7c"></path><path d="M163 29.7L82 36.7L138 86.9Z" fill="#cacaca" stroke="#cacaca"></path><path d="M7 223.3L39 219.3L0 205.3Z" fill="#848787" stroke="#848787"></path><path d="M394 -29.1L143 0L290 -10.1Z" fill="#6e7271" stroke="#6e7271"></path><path d="M82 505.3L78 522.4L107 547.1Z" fill="#b2b3b3" stroke="#b2b3b3"></path><path d="M109 600L166 633.1L160 620.1Z" fill="#a6a8a8" stroke="#a6a8a8"></path><path d="M62 496.6L78 522.4L82 505.3Z" fill="#6e7271" stroke="#6e7271"></path><path d="M143 0L138 3.9L163 29.7Z" fill="#848787" stroke="#848787"></path><path d="M869 213.3L862 171.4L830 194.6Z" fill="#d6d6d6" stroke="#d6d6d6"></path><path d="M0 450.4L62 496.6L90 463.3Z" fill="#cacaca" stroke="#cacaca"></path><path d="M882 460.3L834 441.3L831 456.6Z" fill="#6e7271" stroke="#6e7271"></path><path d="M109 600L154 600L107 547.1Z" fill="#8f9292" stroke="#8f9292"></path><path d="M160 620.1L166 633.1L211 611.1Z" fill="#e2e2e2" stroke="#e2e2e2"></path><path d="M863 81.9L822 74.6L803 136.4Z" fill="#e2e2e2" stroke="#e2e2e2"></path><path d="M806 82.9L822 74.6L767 70.7Z" fill="#6e7271" stroke="#6e7271"></path><path d="M394 -29.1L129 0L143 0Z" fill="#6e7271" stroke="#6e7271"></path><path d="M143 0L129 0L138 3.9Z" fill="#797c7c" stroke="#797c7c"></path><path d="M138 3.9L82 36.7L163 29.7Z" fill="#9a9d9d" stroke="#9a9d9d"></path><path d="M166 633.1L777 600L762 600Z" fill="#a6a8a8" stroke="#a6a8a8"></path><path d="M762 600L777 600L742 554.1Z" fill="#bebfbf" stroke="#bebfbf"></path><path d="M0 205.3L40 190.6L0 163.6Z" fill="#bebfbf" stroke="#bebfbf"></path><path d="M0 213.4L7 223.3L0 205.3Z" fill="#6e7271" stroke="#6e7271"></path><path d="M0 255L0 262.1L70 268Z" fill="#e2e2e2" stroke="#e2e2e2"></path><path d="M45 397.7L0 450.4L90 463.3Z" fill="#848787" stroke="#848787"></path><path d="M0 262.1L47 307L70 268Z" fill="#6e7271" stroke="#6e7271"></path><path d="M822 74.6L783 0L756 39.7Z" fill="#6e7271" stroke="#6e7271"></path><path d="M717 0L783 0L565 -10.1Z" fill="#797c7c" stroke="#797c7c"></path><path d="M900 349.6L839 338.9L844 346.7Z" fill="#8f9292" stroke="#8f9292"></path><path d="M869 213.3L882 174.3L862 171.4Z" fill="#d6d6d6" stroke="#d6d6d6"></path><path d="M899 351.6L844 346.7L868 370.7Z" fill="#797c7c" stroke="#797c7c"></path><path d="M862 171.4L863 81.9L803 136.4Z" fill="#9a9d9d" stroke="#9a9d9d"></path><path d="M822 74.6L824 0L783 0Z" fill="#b2b3b3" stroke="#b2b3b3"></path><path d="M900 197.3L882 174.3L869 213.3Z" fill="#b2b3b3" stroke="#b2b3b3"></path><path d="M899 354.9L899 351.6L868 370.7Z" fill="#6e7271" stroke="#6e7271"></path><path d="M0 255L70 268L39 219.3Z" fill="#848787" stroke="#848787"></path><path d="M900 440.7L899 354.9L868 370.7Z" fill="#e2e2e2" stroke="#e2e2e2"></path><path d="M899 351.6L900 349.6L844 346.7Z" fill="#d6d6d6" stroke="#d6d6d6"></path><path d="M37 569.3L109 600L107 547.1Z" fill="#797c7c" stroke="#797c7c"></path><path d="M37 569.3L107 547.1L78 522.4Z" fill="#8f9292" stroke="#8f9292"></path><path d="M900 351.9L900 349.6L899 351.6Z" fill="#a6a8a8" stroke="#a6a8a8"></path><path d="M7 223.3L0 255L39 219.3Z" fill="#848787" stroke="#848787"></path><path d="M899 354.9L900 351.9L899 351.6Z" fill="#797c7c" stroke="#797c7c"></path><path d="M900 281.1L900 245L863 272.1Z" fill="#a6a8a8" stroke="#a6a8a8"></path><path d="M129 0L82 36.7L138 3.9Z" fill="#cacaca" stroke="#cacaca"></path><path d="M82 36.7L57 69.6L138 86.9Z" fill="#8f9292" stroke="#8f9292"></path><path d="M0 205.3L39 219.3L40 190.6Z" fill="#bebfbf" stroke="#bebfbf"></path><path d="M7 223.3L0 213.4L0 255Z" fill="#bebfbf" stroke="#bebfbf"></path><path d="M900 491.3L882 460.3L889 516.4Z" fill="#e2e2e2" stroke="#e2e2e2"></path><path d="M866 428.6L900 440.7L868 370.7Z" fill="#8f9292" stroke="#8f9292"></path><path d="M899 354.9L900 440.7L900 351.9Z" fill="#e2e2e2" stroke="#e2e2e2"></path><path d="M831 456.6L816 516.1L889 516.4Z" fill="#bebfbf" stroke="#bebfbf"></path><path d="M12 148.4L40 190.6L67 152.6Z" fill="#9a9d9d" stroke="#9a9d9d"></path><path d="M900 245L900 197.3L869 213.3Z" fill="#9a9d9d" stroke="#9a9d9d"></path><path d="M900 163.7L863 81.9L862 171.4Z" fill="#b2b3b3" stroke="#b2b3b3"></path><path d="M17 93.9L12 148.4L67 152.6Z" fill="#cacaca" stroke="#cacaca"></path><path d="M900 197.3L900 185.4L882 174.3Z" fill="#a6a8a8" stroke="#a6a8a8"></path><path d="M900 163.7L862 171.4L882 174.3Z" fill="#a6a8a8" stroke="#a6a8a8"></path><path d="M900 491.3L900 440.7L882 460.3Z" fill="#797c7c" stroke="#797c7c"></path><path d="M882 460.3L900 440.7L866 428.6Z" fill="#bebfbf" stroke="#bebfbf"></path><path d="M0 67.9L0 163.6L12 148.4Z" fill="#cacaca" stroke="#cacaca"></path><path d="M12 148.4L0 163.6L40 190.6Z" fill="#797c7c" stroke="#797c7c"></path><path d="M900 185.4L900 163.7L882 174.3Z" fill="#bebfbf" stroke="#bebfbf"></path><path d="M0 293.9L0 450.4L45 397.7Z" fill="#8f9292" stroke="#8f9292"></path><path d="M14 543.4L37 569.3L78 522.4Z" fill="#848787" stroke="#848787"></path><path d="M0 450.4L0 458.7L62 496.6Z" fill="#d6d6d6" stroke="#d6d6d6"></path><path d="M0 67.9L17 93.9L57 69.6Z" fill="#cacaca" stroke="#cacaca"></path><path d="M57 69.6L17 93.9L67 152.6Z" fill="#6e7271" stroke="#6e7271"></path><path d="M866 9.7L824 0L822 74.6Z" fill="#797c7c" stroke="#797c7c"></path><path d="M783 0L824 0L565 -10.1Z" fill="#e2e2e2" stroke="#e2e2e2"></path><path d="M0 458.7L0 474.6L62 496.6Z" fill="#9a9d9d" stroke="#9a9d9d"></path><path d="M394 -29.1L73 0L129 0Z" fill="#bebfbf" stroke="#bebfbf"></path><path d="M129 0L73 0L82 36.7Z" fill="#e2e2e2" stroke="#e2e2e2"></path><path d="M82 36.7L62 0L57 69.6Z" fill="#9a9d9d" stroke="#9a9d9d"></path><path d="M777 600L847 583.1L818 521.4Z" fill="#d6d6d6" stroke="#d6d6d6"></path><path d="M889 516.4L816 516.1L818 521.4Z" fill="#848787" stroke="#848787"></path><path d="M847 583.1L889 516.4L818 521.4Z" fill="#8f9292" stroke="#8f9292"></path><path d="M0 450.4L-14 462.6L0 458.7Z" fill="#9a9d9d" stroke="#9a9d9d"></path><path d="M0 458.7L-14 462.6L0 474.6Z" fill="#797c7c" stroke="#797c7c"></path><path d="M14 543.4L78 522.4L62 496.6Z" fill="#6e7271" stroke="#6e7271"></path><path d="M0 293.9L-14 462.6L0 450.4Z" fill="#cacaca" stroke="#cacaca"></path><path d="M0 262.1L-14 462.6L0 293.9Z" fill="#9a9d9d" stroke="#9a9d9d"></path><path d="M0 255L-14 462.6L0 262.1Z" fill="#bebfbf" stroke="#bebfbf"></path><path d="M0 213.4L-14 462.6L0 255Z" fill="#797c7c" stroke="#797c7c"></path><path d="M0 205.3L-14 462.6L0 213.4Z" fill="#d6d6d6" stroke="#d6d6d6"></path><path d="M0 163.6L-14 462.6L0 205.3Z" fill="#848787" stroke="#848787"></path><path d="M0 514.3L62 496.6L0 474.6Z" fill="#b2b3b3" stroke="#b2b3b3"></path><path d="M109 600L22 600L166 633.1Z" fill="#848787" stroke="#848787"></path><path d="M394 -29.1L62 0L73 0Z" fill="#cacaca" stroke="#cacaca"></path><path d="M73 0L62 0L82 36.7Z" fill="#b2b3b3" stroke="#b2b3b3"></path><path d="M900 571.1L900 502.4L889 516.4Z" fill="#a6a8a8" stroke="#a6a8a8"></path><path d="M889 516.4L900 502.4L900 491.3Z" fill="#b2b3b3" stroke="#b2b3b3"></path><path d="M-14 462.6L0 514.3L0 474.6Z" fill="#a6a8a8" stroke="#a6a8a8"></path><path d="M-14 462.6L0 515.1L0 514.3Z" fill="#d6d6d6" stroke="#d6d6d6"></path><path d="M0 514.3L0 515.1L62 496.6Z" fill="#797c7c" stroke="#797c7c"></path><path d="M0 515.1L14 543.4L62 496.6Z" fill="#cacaca" stroke="#cacaca"></path><path d="M900 163.7L900 81.6L863 81.9Z" fill="#bebfbf" stroke="#bebfbf"></path><path d="M863 81.9L884 40.7L822 74.6Z" fill="#d6d6d6" stroke="#d6d6d6"></path><path d="M900 81.6L884 40.7L863 81.9Z" fill="#797c7c" stroke="#797c7c"></path><path d="M0 66.7L0 67.9L57 69.6Z" fill="#8f9292" stroke="#8f9292"></path><path d="M17 93.9L0 67.9L12 148.4Z" fill="#9a9d9d" stroke="#9a9d9d"></path><path d="M0 163.6L0 67.9L-14 462.6Z" fill="#9a9d9d" stroke="#9a9d9d"></path><path d="M0 0L0 66.7L57 69.6Z" fill="#cacaca" stroke="#cacaca"></path><path d="M0 67.9L0 66.7L-14 462.6Z" fill="#d6d6d6" stroke="#d6d6d6"></path><path d="M884 40.7L866 9.7L822 74.6Z" fill="#797c7c" stroke="#797c7c"></path><path d="M777 600L868 600L847 583.1Z" fill="#bebfbf" stroke="#bebfbf"></path><path d="M847 583.1L900 571.1L889 516.4Z" fill="#d6d6d6" stroke="#d6d6d6"></path><path d="M166 633.1L868 600L777 600Z" fill="#a6a8a8" stroke="#a6a8a8"></path><path d="M0 600L14 543.4L0 515.1Z" fill="#797c7c" stroke="#797c7c"></path><path d="M0 600L37 569.3L14 543.4Z" fill="#6e7271" stroke="#6e7271"></path><path d="M0 600L22 600L37 569.3Z" fill="#bebfbf" stroke="#bebfbf"></path><path d="M37 569.3L22 600L109 600Z" fill="#b2b3b3" stroke="#b2b3b3"></path><path d="M900 81.6L900 34.9L884 40.7Z" fill="#8f9292" stroke="#8f9292"></path><path d="M884 40.7L900 34.9L866 9.7Z" fill="#797c7c" stroke="#797c7c"></path><path d="M868 600L900 571.1L847 583.1Z" fill="#6e7271" stroke="#6e7271"></path><path d="M900 34.9L896 0L866 9.7Z" fill="#9a9d9d" stroke="#9a9d9d"></path><path d="M866 9.7L896 0L824 0Z" fill="#bebfbf" stroke="#bebfbf"></path><path d="M824 0L896 0L394 -29.1Z" fill="#a6a8a8" stroke="#a6a8a8"></path><path d="M-14 462.6L0 600L0 515.1Z" fill="#bebfbf" stroke="#bebfbf"></path><path d="M22 600L0 600L166 633.1Z" fill="#bebfbf" stroke="#bebfbf"></path><path d="M166 633.1L900 600L868 600Z" fill="#d6d6d6" stroke="#d6d6d6"></path><path d="M868 600L900 600L900 571.1Z" fill="#a6a8a8" stroke="#a6a8a8"></path><path d="M394 -29.1L0 0L62 0Z" fill="#cacaca" stroke="#cacaca"></path><path d="M62 0L0 0L57 69.6Z" fill="#a6a8a8" stroke="#a6a8a8"></path><path d="M0 66.7L0 0L-14 462.6Z" fill="#b2b3b3" stroke="#b2b3b3"></path><path d="M900 34.9L900 0L896 0Z" fill="#797c7c" stroke="#797c7c"></path><path d="M896 0L900 0L394 -29.1Z" fill="#9a9d9d" stroke="#9a9d9d"></path></g></svg>