<svg id="visual" viewBox="0 0 900 600" width="900" height="600" xmlns="http://www.w3.org/2000/svg" xmlns:xlink="http://www.w3.org/1999/xlink" version="1.1"><g stroke-width="1" stroke-linejoin="bevel"><path d="M516 316.9L465 374.9L528 392.6Z" fill="#001e6a" stroke="#001e6a"></path><path d="M528 392.6L591 391.6L516 316.9Z" fill="#0d1d73" stroke="#0d1d73"></path><path d="M465 374.9L421 428.6L528 392.6Z" fill="#001e57" stroke="#001e57"></path><path d="M528 392.6L513 518.3L591 391.6Z" fill="#001a39" stroke="#001a39"></path><path d="M591 391.6L611 308.9L516 316.9Z" fill="#00172e" stroke="#00172e"></path><path d="M552 218.1L480 220.1L516 316.9Z" fill="#001f61" stroke="#001f61"></path><path d="M516 316.9L358 257.1L465 374.9Z" fill="#001f61" stroke="#001f61"></path><path d="M465 374.9L361 389.6L421 428.6Z" fill="#001c43" stroke="#001c43"></path><path d="M349 334.9L361 389.6L465 374.9Z" fill="#001c43" stroke="#001c43"></path><path d="M611 308.9L552 218.1L516 316.9Z" fill="#001323" stroke="#001323"></path><path d="M398 514.3L485 511.3L421 428.6Z" fill="#0d1d73" stroke="#0d1d73"></path><path d="M421 428.6L485 511.3L528 392.6Z" fill="#00172e" stroke="#00172e"></path><path d="M358 257.1L349 334.9L465 374.9Z" fill="#00070c" stroke="#00070c"></path><path d="M685 302.9L643 277.1L611 308.9Z" fill="#001c43" stroke="#001c43"></path><path d="M611 308.9L643 277.1L552 218.1Z" fill="#001d4d" stroke="#001d4d"></path><path d="M485 511.3L513 518.3L528 392.6Z" fill="#0d1d73" stroke="#0d1d73"></path><path d="M504 162.4L447 203.4L480 220.1Z" fill="#000e19" stroke="#000e19"></path><path d="M480 220.1L358 257.1L516 316.9Z" fill="#00070c" stroke="#00070c"></path><path d="M447 203.4L358 257.1L480 220.1Z" fill="#001d4d" stroke="#001d4d"></path><path d="M361 389.6L398 514.3L421 428.6Z" fill="#001323" stroke="#001323"></path><path d="M485 511.3L487 600L513 518.3Z" fill="#001323" stroke="#001323"></path><path d="M591 391.6L685 302.9L611 308.9Z" fill="#001a39" stroke="#001a39"></path><path d="M597 139.4L504 162.4L552 218.1Z" fill="#00070c" stroke="#00070c"></path><path d="M695 462.6L685 302.9L591 391.6Z" fill="#00172e" stroke="#00172e"></path><path d="M597 139.4L552 218.1L690 205.4Z" fill="#001323" stroke="#001323"></path><path d="M552 218.1L504 162.4L480 220.1Z" fill="#001d4d" stroke="#001d4d"></path><path d="M447 203.4L377 185.4L358 257.1Z" fill="#000e19" stroke="#000e19"></path><path d="M349 334.9L306 399.6L361 389.6Z" fill="#001c43" stroke="#001c43"></path><path d="M361 389.6L306 399.6L398 514.3Z" fill="#001a39" stroke="#001a39"></path><path d="M281 311.9L306 399.6L349 334.9Z" fill="#001c43" stroke="#001c43"></path><path d="M414 80.7L377 185.4L447 203.4Z" fill="#000e19" stroke="#000e19"></path><path d="M358 257.1L281 311.9L349 334.9Z" fill="#000e19" stroke="#000e19"></path><path d="M642 530.3L695 462.6L591 391.6Z" fill="#0d1d73" stroke="#0d1d73"></path><path d="M550 600L642 530.3L513 518.3Z" fill="#00070c" stroke="#00070c"></path><path d="M513 518.3L642 530.3L591 391.6Z" fill="#00070c" stroke="#00070c"></path><path d="M300 222.1L281 311.9L358 257.1Z" fill="#00070c" stroke="#00070c"></path><path d="M783 357.9L694 229.1L685 302.9Z" fill="#001323" stroke="#001323"></path><path d="M685 302.9L694 229.1L643 277.1Z" fill="#001d4d" stroke="#001d4d"></path><path d="M690 205.4L552 218.1L643 277.1Z" fill="#00070c" stroke="#00070c"></path><path d="M504 162.4L414 80.7L447 203.4Z" fill="#001e57" stroke="#001e57"></path><path d="M694 229.1L690 205.4L643 277.1Z" fill="#00070c" stroke="#00070c"></path><path d="M398 514.3L487 600L485 511.3Z" fill="#001a39" stroke="#001a39"></path><path d="M377 185.4L300 222.1L358 257.1Z" fill="#001e6a" stroke="#001e6a"></path><path d="M487 600L550 600L513 518.3Z" fill="#000e19" stroke="#000e19"></path><path d="M613 69.7L571 116.7L597 139.4Z" fill="#0d1d73" stroke="#0d1d73"></path><path d="M597 139.4L571 116.7L504 162.4Z" fill="#0d1d73" stroke="#0d1d73"></path><path d="M721 600L710 520.3L642 530.3Z" fill="#001323" stroke="#001323"></path><path d="M642 530.3L710 520.3L695 462.6Z" fill="#000e19" stroke="#000e19"></path><path d="M695 462.6L773 418.6L685 302.9Z" fill="#001d4d" stroke="#001d4d"></path><path d="M216 460.6L277 494.3L306 399.6Z" fill="#001f61" stroke="#001f61"></path><path d="M306 399.6L277 494.3L398 514.3Z" fill="#000e19" stroke="#000e19"></path><path d="M398 514.3L366 600L487 600Z" fill="#001e6a" stroke="#001e6a"></path><path d="M550 600L626 600L642 530.3Z" fill="#001f61" stroke="#001f61"></path><path d="M710 520.3L773 418.6L695 462.6Z" fill="#001e57" stroke="#001e57"></path><path d="M793 184.4L730 112.7L690 205.4Z" fill="#00070c" stroke="#00070c"></path><path d="M277 494.3L366 600L398 514.3Z" fill="#001a39" stroke="#001a39"></path><path d="M773 418.6L783 357.9L685 302.9Z" fill="#001f61" stroke="#001f61"></path><path d="M283 110.7L275 192.4L377 185.4Z" fill="#001d4d" stroke="#001d4d"></path><path d="M377 185.4L275 192.4L300 222.1Z" fill="#001f61" stroke="#001f61"></path><path d="M300 222.1L171 246.1L281 311.9Z" fill="#000e19" stroke="#000e19"></path><path d="M168 342.9L216 460.6L306 399.6Z" fill="#001d4d" stroke="#001d4d"></path><path d="M571 116.7L414 80.7L504 162.4Z" fill="#00070c" stroke="#00070c"></path><path d="M168 342.9L306 399.6L281 311.9Z" fill="#001a39" stroke="#001a39"></path><path d="M277 494.3L238 600L366 600Z" fill="#0d1d73" stroke="#0d1d73"></path><path d="M730 112.7L613 69.7L597 139.4Z" fill="#001323" stroke="#001323"></path><path d="M571 116.7L469 0L414 80.7Z" fill="#001f61" stroke="#001f61"></path><path d="M730 112.7L597 139.4L690 205.4Z" fill="#0d1d73" stroke="#0d1d73"></path><path d="M626 600L721 600L642 530.3Z" fill="#001d4d" stroke="#001d4d"></path><path d="M710 520.3L807 519.3L773 418.6Z" fill="#00070c" stroke="#00070c"></path><path d="M414 80.7L283 110.7L377 185.4Z" fill="#00070c" stroke="#00070c"></path><path d="M171 246.1L168 342.9L281 311.9Z" fill="#0d1d73" stroke="#0d1d73"></path><path d="M793 184.4L690 205.4L694 229.1Z" fill="#001323" stroke="#001323"></path><path d="M171 246.1L300 222.1L275 192.4Z" fill="#001e57" stroke="#001e57"></path><path d="M834 223.1L793 184.4L694 229.1Z" fill="#001e57" stroke="#001e57"></path><path d="M109 495.3L215 537.3L216 460.6Z" fill="#001d4d" stroke="#001d4d"></path><path d="M216 460.6L215 537.3L277 494.3Z" fill="#00070c" stroke="#00070c"></path><path d="M900 433.6L900 337.9L783 357.9Z" fill="#0d1d73" stroke="#0d1d73"></path><path d="M783 357.9L834 223.1L694 229.1Z" fill="#001d4d" stroke="#001d4d"></path><path d="M770 600L807 519.3L710 520.3Z" fill="#0d1d73" stroke="#0d1d73"></path><path d="M143 174.4L171 246.1L275 192.4Z" fill="#000e19" stroke="#000e19"></path><path d="M900 290.1L834 223.1L783 357.9Z" fill="#000e19" stroke="#000e19"></path><path d="M700 0L667 0L730 112.7Z" fill="#001323" stroke="#001323"></path><path d="M414 80.7L321 49.7L283 110.7Z" fill="#001e57" stroke="#001e57"></path><path d="M283 110.7L143 174.4L275 192.4Z" fill="#00070c" stroke="#00070c"></path><path d="M327 0L321 49.7L414 80.7Z" fill="#0d1d73" stroke="#0d1d73"></path><path d="M667 0L528 0L613 69.7Z" fill="#001a39" stroke="#001a39"></path><path d="M613 69.7L528 0L571 116.7Z" fill="#001e6a" stroke="#001e6a"></path><path d="M528 0L469 0L571 116.7Z" fill="#001e57" stroke="#001e57"></path><path d="M215 537.3L238 600L277 494.3Z" fill="#001c43" stroke="#001c43"></path><path d="M721 600L770 600L710 520.3Z" fill="#00070c" stroke="#00070c"></path><path d="M215 537.3L202 600L238 600Z" fill="#001c43" stroke="#001c43"></path><path d="M103 600L202 600L215 537.3Z" fill="#001f61" stroke="#001f61"></path><path d="M788 68.7L730 112.7L793 184.4Z" fill="#001a39" stroke="#001a39"></path><path d="M730 112.7L667 0L613 69.7Z" fill="#001a39" stroke="#001a39"></path><path d="M900 433.6L783 357.9L773 418.6Z" fill="#001f61" stroke="#001f61"></path><path d="M900 433.6L773 418.6L807 519.3Z" fill="#001d4d" stroke="#001d4d"></path><path d="M171 246.1L106 332.9L168 342.9Z" fill="#00070c" stroke="#00070c"></path><path d="M168 342.9L105 440.6L216 460.6Z" fill="#00070c" stroke="#00070c"></path><path d="M469 0L327 0L414 80.7Z" fill="#001d4d" stroke="#001d4d"></path><path d="M321 49.7L242 0L283 110.7Z" fill="#00070c" stroke="#00070c"></path><path d="M171 246.1L72 241.1L106 332.9Z" fill="#001323" stroke="#001323"></path><path d="M900 337.9L900 290.1L783 357.9Z" fill="#0d1d73" stroke="#0d1d73"></path><path d="M900 149.4L788 68.7L793 184.4Z" fill="#001d4d" stroke="#001d4d"></path><path d="M900 543.3L900 433.6L807 519.3Z" fill="#001a39" stroke="#001a39"></path><path d="M159 53.7L143 174.4L283 110.7Z" fill="#001e57" stroke="#001e57"></path><path d="M900 149.4L793 184.4L834 223.1Z" fill="#00172e" stroke="#00172e"></path><path d="M106 332.9L105 440.6L168 342.9Z" fill="#001323" stroke="#001323"></path><path d="M788 68.7L700 0L730 112.7Z" fill="#00172e" stroke="#00172e"></path><path d="M105 440.6L109 495.3L216 460.6Z" fill="#00172e" stroke="#00172e"></path><path d="M900 600L900 543.3L807 519.3Z" fill="#001c43" stroke="#001c43"></path><path d="M327 0L242 0L321 49.7Z" fill="#00070c" stroke="#00070c"></path><path d="M143 174.4L72 241.1L171 246.1Z" fill="#001f61" stroke="#001f61"></path><path d="M106 332.9L0 315.9L105 440.6Z" fill="#0d1d73" stroke="#0d1d73"></path><path d="M0 600L103 600L109 495.3Z" fill="#00070c" stroke="#00070c"></path><path d="M73 149.4L72 241.1L143 174.4Z" fill="#00070c" stroke="#00070c"></path><path d="M900 290.1L900 149.4L834 223.1Z" fill="#001e57" stroke="#001e57"></path><path d="M788 68.7L818 0L700 0Z" fill="#001c43" stroke="#001c43"></path><path d="M242 0L159 53.7L283 110.7Z" fill="#001323" stroke="#001323"></path><path d="M242 0L209 0L159 53.7Z" fill="#001e57" stroke="#001e57"></path><path d="M770 600L900 600L807 519.3Z" fill="#001323" stroke="#001323"></path><path d="M0 466.6L109 495.3L105 440.6Z" fill="#0d1d73" stroke="#0d1d73"></path><path d="M109 495.3L103 600L215 537.3Z" fill="#001d4d" stroke="#001d4d"></path><path d="M900 45.7L818 0L788 68.7Z" fill="#001c43" stroke="#001c43"></path><path d="M75 114.7L73 149.4L143 174.4Z" fill="#00070c" stroke="#00070c"></path><path d="M159 53.7L75 114.7L143 174.4Z" fill="#001c43" stroke="#001c43"></path><path d="M113 0L75 114.7L159 53.7Z" fill="#001a39" stroke="#001a39"></path><path d="M900 149.4L900 45.7L788 68.7Z" fill="#001e6a" stroke="#001e6a"></path><path d="M0 269.1L72 241.1L0 196.4Z" fill="#001d4d" stroke="#001d4d"></path><path d="M0 269.1L0 315.9L72 241.1Z" fill="#001f61" stroke="#001f61"></path><path d="M72 241.1L0 315.9L106 332.9Z" fill="#001f61" stroke="#001f61"></path><path d="M0 196.4L72 241.1L73 149.4Z" fill="#001323" stroke="#001323"></path><path d="M0 315.9L0 466.6L105 440.6Z" fill="#00070c" stroke="#00070c"></path><path d="M0 466.6L0 479.3L109 495.3Z" fill="#00070c" stroke="#00070c"></path><path d="M0 95.7L0 196.4L73 149.4Z" fill="#001d4d" stroke="#001d4d"></path><path d="M209 0L113 0L159 53.7Z" fill="#00070c" stroke="#00070c"></path><path d="M75 114.7L0 95.7L73 149.4Z" fill="#001e57" stroke="#001e57"></path><path d="M900 45.7L900 0L818 0Z" fill="#001e57" stroke="#001e57"></path><path d="M0 479.3L0 600L109 495.3Z" fill="#001323" stroke="#001323"></path><path d="M0 0L0 95.7L75 114.7Z" fill="#001e57" stroke="#001e57"></path><path d="M113 0L0 0L75 114.7Z" fill="#001e6a" stroke="#001e6a"></path></g></svg>